ffmpeg started on 2026-01-18 at 20:46:06
Report written to "C:\Dev\OSPanel\domains\Java-AT\modules\ffmpeg\FFMetrics\reports\ssim_report-6.txt"
Log level: 32
Command line:
ffmpeg -hide_banner -nostdin -r 24000/1001 -i "F:\\Convert\\files\\[DC] Make Heroine ga Oosugiru - 07_Telegram_HEVC(167).mkv" -r 24000/1001 -i "F:\\Convert\\files\\[DC] Make Heroine ga Oosugiru - 07_Telegram.mp4" -lavfi "[0:v]settb=AVTB,setpts=PTS-STARTPTS,format=pix_fmts=yuv420p10le,fps=24000/1001,scale=1920:1080:flags=lanczos:param0=3:out_range=limited:out_color_matrix=bt709:out_chroma_loc=left,setsar=1/1,setdar=(1920/1080)*(1/1),colorspace=format=yuv420p10:range=tv:primaries=bt709:trc=bt709:space=bt709:fast=0[main];[1:v]settb=AVTB,setpts=PTS-STARTPTS,format=pix_fmts=yuv420p,fps=24000/1001,scale=1920:1080:flags=lanczos:param0=3:out_range=limited:out_color_matrix=bt709:out_chroma_loc=left,setsar=1.000,setdar=1.778,colorspace=format=yuv420p:range=tv:primaries=bt709:trc=bt709:space=bt709:fast=0[ref];[main][ref]ssim=eof_action=endall:stats_file='C\\:/Dev/OSPanel/domains/Java-AT/modules/ffmpeg/FFMetrics/logs/ssim_logfile-6.txt'" -f null -
Input #0, matroska,webm, from 'F:\Convert\files\[DC] Make Heroine ga Oosugiru - 07_Telegram_HEVC(167).mkv':
  Metadata:
    COMPATIBLE_BRANDS: isomiso2avc1mp41
    MAJOR_BRAND     : isom
    MINOR_VERSION   : 512
    ENCODER         : Lavf61.7.100
  Duration: 00:24:06.79, start: -0.021000, bitrate: 994 kb/s
  Stream #0:0: Video: hevc (Main 10), yuv420p10le(tv, bt709, progressive), 1920x1080 [SAR 1:1 DAR 16:9], 23.98 fps, 23.98 tbr, 1k tbn (default)
      Metadata:
        HANDLER_NAME    : VideoHandler
        VENDOR_ID       : [0][0][0][0]
        ENCODER         : Lavc61.19.100 libx265
        BPS             : 797304
        DURATION        : 00:24:06.569708333
        NUMBER_OF_FRAMES: 34683
        NUMBER_OF_BYTES : 144169483
        _STATISTICS_WRITING_APP: mkvpropedit v94.0 ('Initiate') 64-bit
        _STATISTICS_WRITING_DATE_UTC: 2026-01-18 11:05:33
        _STATISTICS_TAGS: BPS DURATION NUMBER_OF_FRAMES NUMBER_OF_BYTES
  Stream #0:1: Audio: aac (LC), 48000 Hz, stereo, fltp (default)
      Metadata:
        HANDLER_NAME    : SoundHandler
        VENDOR_ID       : [0][0][0][0]
        ENCODER         : Lavc61.19.100 aac
        BPS             : 193194
        DURATION        : 00:24:06.784000000
        NUMBER_OF_FRAMES: 67819
        NUMBER_OF_BYTES : 34938755
        _STATISTICS_WRITING_APP: mkvpropedit v94.0 ('Initiate') 64-bit
        _STATISTICS_WRITING_DATE_UTC: 2026-01-18 11:05:33
        _STATISTICS_TAGS: BPS DURATION NUMBER_OF_FRAMES NUMBER_OF_BYTES
Input #1, mov,mp4,m4a,3gp,3g2,mj2, from 'F:\Convert\files\[DC] Make Heroine ga Oosugiru - 07_Telegram.mp4':
  Metadata:
    major_brand     : isom
    minor_version   : 512
    compatible_brands: isomiso2avc1mp41
    encoder         : Lavf60.16.100
  Duration: 00:24:06.74, start: 0.000000, bitrate: 3764 kb/s
  Stream #1:0[0x1](und): Video: h264 (High) (avc1 / 0x31637661), yuv420p(tv, bt709, progressive), 1920x1080 [SAR 1:1 DAR 16:9], 3616 kb/s, 23.98 fps, 23.98 tbr, 24k tbn (default)
      Metadata:
        handler_name    : VideoHandler
        vendor_id       : [0][0][0][0]
        encoder         : Lavc60.31.102 h264_qsv
  Stream #1:1[0x2](und): Audio: aac (HE-AACv2) (mp4a / 0x6134706D), 48000 Hz, stereo, fltp, 144 kb/s (default)
      Metadata:
        handler_name    : SoundHandler
        vendor_id       : [0][0][0][0]
Stream mapping:
  Stream #0:0 (hevc) -> settb:default
  Stream #1:0 (h264) -> settb:default
  ssim:default -> Stream #0:0 (wrapped_avframe)
  Stream #0:1 -> #0:1 (aac (native) -> pcm_s16le (native))
Output #0, null, to 'pipe:':
  Metadata:
    COMPATIBLE_BRANDS: isomiso2avc1mp41
    MAJOR_BRAND     : isom
    MINOR_VERSION   : 512
    encoder         : Lavf61.7.100
  Stream #0:0: Video: wrapped_avframe, yuv420p10le(tv, bt709, progressive), 1920x1080 [SAR 1:1 DAR 16:9], q=2-31, 200 kb/s, 23.98 fps, 23.98 tbn
      Metadata:
        encoder         : Lavc61.19.100 wrapped_avframe
  Stream #0:1: Audio: pcm_s16le, 48000 Hz, stereo, s16, 1536 kb/s (default)
      Metadata:
        HANDLER_NAME    : SoundHandler
        VENDOR_ID       : [0][0][0][0]
        _STATISTICS_TAGS: BPS DURATION NUMBER_OF_FRAMES NUMBER_OF_BYTES
        BPS             : 193194
        DURATION        : 00:24:06.784000000
        NUMBER_OF_FRAMES: 67819
        NUMBER_OF_BYTES : 34938755
        _STATISTICS_WRITING_APP: mkvpropedit v94.0 ('Initiate') 64-bit
        _STATISTICS_WRITING_DATE_UTC: 2026-01-18 11:05:33
        encoder         : Lavc61.19.100 pcm_s16le
frame=  130 fps=0.0 q=-0.0 size=N/A time=00:00:05.42 bitrate=N/A speed=10.5x    frame=  309 fps=300 q=-0.0 size=N/A time=00:00:12.88 bitrate=N/A speed=12.5x    frame=  490 fps=318 q=-0.0 size=N/A time=00:00:20.43 bitrate=N/A speed=13.3x    frame=  669 fps=326 q=-0.0 size=N/A time=00:00:27.90 bitrate=N/A speed=13.6x    frame=  861 fps=334 q=-0.0 size=N/A time=00:00:35.91 bitrate=N/A speed=13.9x    frame=  999 fps=321 q=-0.0 size=N/A time=00:00:41.66 bitrate=N/A speed=13.4x    frame= 1158 fps=320 q=-0.0 size=N/A time=00:00:48.29 bitrate=N/A speed=13.3x    frame= 1319 fps=319 q=-0.0 size=N/A time=00:00:55.01 bitrate=N/A speed=13.3x    frame= 1489 fps=321 q=-0.0 size=N/A time=00:01:02.10 bitrate=N/A speed=13.4x    frame= 1638 fps=317 q=-0.0 size=N/A time=00:01:08.31 bitrate=N/A speed=13.2x    frame= 1795 fps=316 q=-0.0 size=N/A time=00:01:14.86 bitrate=N/A speed=13.2x    frame= 1954 fps=315 q=-0.0 size=N/A time=00:01:21.49 bitrate=N/A speed=13.2x    frame= 2078 fps=310 q=-0.0 size=N/A time=00:01:26.66 bitrate=N/A speed=12.9x    frame= 2219 fps=307 q=-0.0 size=N/A time=00:01:32.55 bitrate=N/A speed=12.8x    frame= 2364 fps=305 q=-0.0 size=N/A time=00:01:38.59 bitrate=N/A speed=12.7x    frame= 2500 fps=303 q=-0.0 size=N/A time=00:01:44.27 bitrate=N/A speed=12.6x    frame= 2656 fps=303 q=-0.0 size=N/A time=00:01:50.77 bitrate=N/A speed=12.6x    frame= 2832 fps=305 q=-0.0 size=N/A time=00:01:58.11 bitrate=N/A speed=12.7x    frame= 3006 fps=306 q=-0.0 size=N/A time=00:02:05.37 bitrate=N/A speed=12.8x    frame= 3188 fps=309 q=-0.0 size=N/A time=00:02:12.96 bitrate=N/A speed=12.9x    frame= 3380 fps=312 q=-0.0 size=N/A time=00:02:20.97 bitrate=N/A speed=  13x    frame= 3574 fps=315 q=-0.0 size=N/A time=00:02:29.06 bitrate=N/A speed=13.1x    frame= 3770 fps=318 q=-0.0 size=N/A time=00:02:37.24 bitrate=N/A speed=13.2x    frame= 3956 fps=320 q=-0.0 size=N/A time=00:02:44.99 bitrate=N/A speed=13.3x    frame= 4145 fps=321 q=-0.0 size=N/A time=00:02:52.88 bitrate=N/A speed=13.4x    frame= 4337 fps=323 q=-0.0 size=N/A time=00:03:00.88 bitrate=N/A speed=13.5x    frame= 4518 fps=324 q=-0.0 size=N/A time=00:03:08.43 bitrate=N/A speed=13.5x    frame= 4698 fps=325 q=-0.0 size=N/A time=00:03:15.94 bitrate=N/A speed=13.6x    frame= 4893 fps=327 q=-0.0 size=N/A time=00:03:24.07 bitrate=N/A speed=13.6x    frame= 5078 fps=328 q=-0.0 size=N/A time=00:03:31.79 bitrate=N/A speed=13.7x    frame= 5263 fps=329 q=-0.0 size=N/A time=00:03:39.51 bitrate=N/A speed=13.7x    frame= 5445 fps=330 q=-0.0 size=N/A time=00:03:47.10 bitrate=N/A speed=13.8x    frame= 5628 fps=331 q=-0.0 size=N/A time=00:03:54.73 bitrate=N/A speed=13.8x    frame= 5822 fps=332 q=-0.0 size=N/A time=00:04:02.82 bitrate=N/A speed=13.8x    frame= 6006 fps=333 q=-0.0 size=N/A time=00:04:10.50 bitrate=N/A speed=13.9x    frame= 6184 fps=333 q=-0.0 size=N/A time=00:04:17.92 bitrate=N/A speed=13.9x    frame= 6376 fps=334 q=-0.0 size=N/A time=00:04:25.93 bitrate=N/A speed=13.9x    frame= 6570 fps=335 q=-0.0 size=N/A time=00:04:34.02 bitrate=N/A speed=  14x    frame= 6756 fps=336 q=-0.0 size=N/A time=00:04:41.78 bitrate=N/A speed=  14x    frame= 6939 fps=336 q=-0.0 size=N/A time=00:04:49.41 bitrate=N/A speed=  14x    frame= 7128 fps=337 q=-0.0 size=N/A time=00:04:57.29 bitrate=N/A speed=14.1x    frame= 7316 fps=338 q=-0.0 size=N/A time=00:05:05.13 bitrate=N/A speed=14.1x    frame= 7493 fps=338 q=-0.0 size=N/A time=00:05:12.52 bitrate=N/A speed=14.1x    frame= 7674 fps=338 q=-0.0 size=N/A time=00:05:20.06 bitrate=N/A speed=14.1x    frame= 7863 fps=339 q=-0.0 size=N/A time=00:05:27.95 bitrate=N/A speed=14.1x    frame= 8043 fps=339 q=-0.0 size=N/A time=00:05:35.46 bitrate=N/A speed=14.1x    frame= 8225 fps=339 q=-0.0 size=N/A time=00:05:43.05 bitrate=N/A speed=14.2x    frame= 8409 fps=340 q=-0.0 size=N/A time=00:05:50.72 bitrate=N/A speed=14.2x    frame= 8598 fps=340 q=-0.0 size=N/A time=00:05:58.60 bitrate=N/A speed=14.2x    frame= 8782 fps=340 q=-0.0 size=N/A time=00:06:06.28 bitrate=N/A speed=14.2x    frame= 8964 fps=341 q=-0.0 size=N/A time=00:06:13.87 bitrate=N/A speed=14.2x    frame= 9143 fps=341 q=-0.0 size=N/A time=00:06:21.33 bitrate=N/A speed=14.2x    frame= 9328 fps=341 q=-0.0 size=N/A time=00:06:29.05 bitrate=N/A speed=14.2x    frame= 9505 fps=341 q=-0.0 size=N/A time=00:06:36.43 bitrate=N/A speed=14.2x    frame= 9686 fps=341 q=-0.0 size=N/A time=00:06:43.98 bitrate=N/A speed=14.2x    frame= 9869 fps=342 q=-0.0 size=N/A time=00:06:51.61 bitrate=N/A speed=14.3x    frame=10061 fps=342 q=-0.0 size=N/A time=00:06:59.62 bitrate=N/A speed=14.3x    frame=10248 fps=343 q=-0.0 size=N/A time=00:07:07.42 bitrate=N/A speed=14.3x    frame=10435 fps=343 q=-0.0 size=N/A time=00:07:15.22 bitrate=N/A speed=14.3x    frame=10624 fps=343 q=-0.0 size=N/A time=00:07:23.10 bitrate=N/A speed=14.3x    frame=10815 fps=344 q=-0.0 size=N/A time=00:07:31.07 bitrate=N/A speed=14.3x    frame=11007 fps=344 q=-0.0 size=N/A time=00:07:39.08 bitrate=N/A speed=14.4x    frame=11189 fps=344 q=-0.0 size=N/A time=00:07:46.67 bitrate=N/A speed=14.4x    frame=11375 fps=345 q=-0.0 size=N/A time=00:07:54.43 bitrate=N/A speed=14.4x    frame=11572 fps=345 q=-0.0 size=N/A time=00:08:02.64 bitrate=N/A speed=14.4x    frame=11760 fps=345 q=-0.0 size=N/A time=00:08:10.49 bitrate=N/A speed=14.4x    frame=11953 fps=346 q=-0.0 size=N/A time=00:08:18.53 bitrate=N/A speed=14.4x    frame=12142 fps=346 q=-0.0 size=N/A time=00:08:26.42 bitrate=N/A speed=14.4x    frame=12337 fps=347 q=-0.0 size=N/A time=00:08:34.55 bitrate=N/A speed=14.5x    frame=12528 fps=347 q=-0.0 size=N/A time=00:08:42.52 bitrate=N/A speed=14.5x    frame=12718 fps=347 q=-0.0 size=N/A time=00:08:50.44 bitrate=N/A speed=14.5x    frame=12908 fps=348 q=-0.0 size=N/A time=00:08:58.37 bitrate=N/A speed=14.5x    frame=13104 fps=348 q=-0.0 size=N/A time=00:09:06.54 bitrate=N/A speed=14.5x    frame=13290 fps=348 q=-0.0 size=N/A time=00:09:14.30 bitrate=N/A speed=14.5x    frame=13476 fps=348 q=-0.0 size=N/A time=00:09:22.06 bitrate=N/A speed=14.5x    frame=13655 fps=348 q=-0.0 size=N/A time=00:09:29.52 bitrate=N/A speed=14.5x    frame=13843 fps=348 q=-0.0 size=N/A time=00:09:37.36 bitrate=N/A speed=14.5x    frame=14033 fps=349 q=-0.0 size=N/A time=00:09:45.29 bitrate=N/A speed=14.5x    frame=14208 fps=349 q=-0.0 size=N/A time=00:09:52.59 bitrate=N/A speed=14.5x    frame=14398 fps=349 q=-0.0 size=N/A time=00:10:00.51 bitrate=N/A speed=14.5x    frame=14582 fps=349 q=-0.0 size=N/A time=00:10:08.19 bitrate=N/A speed=14.6x    frame=14766 fps=349 q=-0.0 size=N/A time=00:10:15.86 bitrate=N/A speed=14.6x    frame=14951 fps=349 q=-0.0 size=N/A time=00:10:23.58 bitrate=N/A speed=14.6x    frame=15120 fps=349 q=-0.0 size=N/A time=00:10:30.63 bitrate=N/A speed=14.6x    frame=15297 fps=349 q=-0.0 size=N/A time=00:10:38.01 bitrate=N/A speed=14.5x    frame=15484 fps=349 q=-0.0 size=N/A time=00:10:45.81 bitrate=N/A speed=14.6x    frame=15673 fps=349 q=-0.0 size=N/A time=00:10:53.69 bitrate=N/A speed=14.6x    frame=15862 fps=349 q=-0.0 size=N/A time=00:11:01.57 bitrate=N/A speed=14.6x    frame=16055 fps=350 q=-0.0 size=N/A time=00:11:09.62 bitrate=N/A speed=14.6x    frame=16246 fps=350 q=-0.0 size=N/A time=00:11:17.59 bitrate=N/A speed=14.6x    frame=16434 fps=350 q=-0.0 size=N/A time=00:11:25.43 bitrate=N/A speed=14.6x    frame=16620 fps=350 q=-0.0 size=N/A time=00:11:33.19 bitrate=N/A speed=14.6x    frame=16814 fps=350 q=-0.0 size=N/A time=00:11:41.28 bitrate=N/A speed=14.6x    frame=17004 fps=351 q=-0.0 size=N/A time=00:11:49.20 bitrate=N/A speed=14.6x    frame=17199 fps=351 q=-0.0 size=N/A time=00:11:57.34 bitrate=N/A speed=14.6x    frame=17387 fps=351 q=-0.0 size=N/A time=00:12:05.18 bitrate=N/A speed=14.6x    frame=17578 fps=351 q=-0.0 size=N/A time=00:12:13.14 bitrate=N/A speed=14.6x    frame=17762 fps=351 q=-0.0 size=N/A time=00:12:20.82 bitrate=N/A speed=14.6x    frame=17941 fps=351 q=-0.0 size=N/A time=00:12:28.28 bitrate=N/A speed=14.6x    frame=18136 fps=352 q=-0.0 size=N/A time=00:12:36.42 bitrate=N/A speed=14.7x    frame=18321 fps=352 q=-0.0 size=N/A time=00:12:44.13 bitrate=N/A speed=14.7x    frame=18505 fps=352 q=-0.0 size=N/A time=00:12:51.81 bitrate=N/A speed=14.7x    frame=18693 fps=352 q=-0.0 size=N/A time=00:12:59.65 bitrate=N/A speed=14.7x    frame=18875 fps=352 q=-0.0 size=N/A time=00:13:07.24 bitrate=N/A speed=14.7x    frame=19067 fps=352 q=-0.0 size=N/A time=00:13:15.25 bitrate=N/A speed=14.7x    frame=19245 fps=352 q=-0.0 size=N/A time=00:13:22.67 bitrate=N/A speed=14.7x    frame=19433 fps=352 q=-0.0 size=N/A time=00:13:30.51 bitrate=N/A speed=14.7x    frame=19618 fps=352 q=-0.0 size=N/A time=00:13:38.23 bitrate=N/A speed=14.7x    frame=19811 fps=352 q=-0.0 size=N/A time=00:13:46.28 bitrate=N/A speed=14.7x    frame=19994 fps=352 q=-0.0 size=N/A time=00:13:53.91 bitrate=N/A speed=14.7x    frame=20185 fps=352 q=-0.0 size=N/A time=00:14:01.88 bitrate=N/A speed=14.7x    frame=20381 fps=353 q=-0.0 size=N/A time=00:14:10.05 bitrate=N/A speed=14.7x    frame=20568 fps=353 q=-0.0 size=N/A time=00:14:17.85 bitrate=N/A speed=14.7x    frame=20753 fps=353 q=-0.0 size=N/A time=00:14:25.57 bitrate=N/A speed=14.7x    frame=20941 fps=353 q=-0.0 size=N/A time=00:14:33.41 bitrate=N/A speed=14.7x    frame=21141 fps=353 q=-0.0 size=N/A time=00:14:41.75 bitrate=N/A speed=14.7x    frame=21330 fps=353 q=-0.0 size=N/A time=00:14:49.63 bitrate=N/A speed=14.7x    frame=21511 fps=353 q=-0.0 size=N/A time=00:14:57.18 bitrate=N/A speed=14.7x    frame=21703 fps=353 q=-0.0 size=N/A time=00:15:05.19 bitrate=N/A speed=14.7x    frame=21885 fps=353 q=-0.0 size=N/A time=00:15:12.78 bitrate=N/A speed=14.7x    frame=22073 fps=354 q=-0.0 size=N/A time=00:15:20.62 bitrate=N/A speed=14.7x    frame=22257 fps=354 q=-0.0 size=N/A time=00:15:28.30 bitrate=N/A speed=14.7x    frame=22449 fps=354 q=-0.0 size=N/A time=00:15:36.31 bitrate=N/A speed=14.8x    frame=22639 fps=354 q=-0.0 size=N/A time=00:15:44.23 bitrate=N/A speed=14.8x    frame=22825 fps=354 q=-0.0 size=N/A time=00:15:51.99 bitrate=N/A speed=14.8x    frame=23015 fps=354 q=-0.0 size=N/A time=00:15:59.91 bitrate=N/A speed=14.8x    frame=23190 fps=354 q=-0.0 size=N/A time=00:16:07.21 bitrate=N/A speed=14.8x    frame=23387 fps=354 q=-0.0 size=N/A time=00:16:15.43 bitrate=N/A speed=14.8x    frame=23567 fps=354 q=-0.0 size=N/A time=00:16:22.94 bitrate=N/A speed=14.8x    frame=23759 fps=354 q=-0.0 size=N/A time=00:16:30.94 bitrate=N/A speed=14.8x    frame=23947 fps=354 q=-0.0 size=N/A time=00:16:38.78 bitrate=N/A speed=14.8x    frame=24140 fps=354 q=-0.0 size=N/A time=00:16:46.83 bitrate=N/A speed=14.8x    frame=24327 fps=354 q=-0.0 size=N/A time=00:16:54.63 bitrate=N/A speed=14.8x    frame=24516 fps=355 q=-0.0 size=N/A time=00:17:02.52 bitrate=N/A speed=14.8x    frame=24710 fps=355 q=-0.0 size=N/A time=00:17:10.61 bitrate=N/A speed=14.8x    frame=24903 fps=355 q=-0.0 size=N/A time=00:17:18.66 bitrate=N/A speed=14.8x    frame=25096 fps=355 q=-0.0 size=N/A time=00:17:26.71 bitrate=N/A speed=14.8x    frame=25285 fps=355 q=-0.0 size=N/A time=00:17:34.59 bitrate=N/A speed=14.8x    frame=25464 fps=355 q=-0.0 size=N/A time=00:17:42.06 bitrate=N/A speed=14.8x    frame=25661 fps=355 q=-0.0 size=N/A time=00:17:50.27 bitrate=N/A speed=14.8x    frame=25849 fps=355 q=-0.0 size=N/A time=00:17:58.11 bitrate=N/A speed=14.8x    frame=26029 fps=355 q=-0.0 size=N/A time=00:18:05.62 bitrate=N/A speed=14.8x    frame=26213 fps=355 q=-0.0 size=N/A time=00:18:13.30 bitrate=N/A speed=14.8x    frame=26397 fps=355 q=-0.0 size=N/A time=00:18:20.97 bitrate=N/A speed=14.8x    frame=26592 fps=355 q=-0.0 size=N/A time=00:18:29.10 bitrate=N/A speed=14.8x    frame=26778 fps=355 q=-0.0 size=N/A time=00:18:36.86 bitrate=N/A speed=14.8x    frame=26953 fps=355 q=-0.0 size=N/A time=00:18:44.16 bitrate=N/A speed=14.8x    frame=27124 fps=355 q=-0.0 size=N/A time=00:18:51.29 bitrate=N/A speed=14.8x    frame=27308 fps=355 q=-0.0 size=N/A time=00:18:58.97 bitrate=N/A speed=14.8x    frame=27501 fps=355 q=-0.0 size=N/A time=00:19:07.02 bitrate=N/A speed=14.8x    frame=27684 fps=355 q=-0.0 size=N/A time=00:19:14.65 bitrate=N/A speed=14.8x    frame=27859 fps=355 q=-0.0 size=N/A time=00:19:21.95 bitrate=N/A speed=14.8x    frame=28043 fps=355 q=-0.0 size=N/A time=00:19:29.62 bitrate=N/A speed=14.8x    frame=28227 fps=355 q=-0.0 size=N/A time=00:19:37.30 bitrate=N/A speed=14.8x    frame=28407 fps=355 q=-0.0 size=N/A time=00:19:44.80 bitrate=N/A speed=14.8x    frame=28590 fps=355 q=-0.0 size=N/A time=00:19:52.44 bitrate=N/A speed=14.8x    frame=28773 fps=355 q=-0.0 size=N/A time=00:20:00.07 bitrate=N/A speed=14.8x    frame=28944 fps=355 q=-0.0 size=N/A time=00:20:07.20 bitrate=N/A speed=14.8x    frame=29115 fps=355 q=-0.0 size=N/A time=00:20:14.33 bitrate=N/A speed=14.8x    frame=29292 fps=355 q=-0.0 size=N/A time=00:20:21.72 bitrate=N/A speed=14.8x    frame=29459 fps=355 q=-0.0 size=N/A time=00:20:28.68 bitrate=N/A speed=14.8x    frame=29634 fps=355 q=-0.0 size=N/A time=00:20:35.98 bitrate=N/A speed=14.8x    frame=29812 fps=354 q=-0.0 size=N/A time=00:20:43.40 bitrate=N/A speed=14.8x    frame=29980 fps=354 q=-0.0 size=N/A time=00:20:50.41 bitrate=N/A speed=14.8x    frame=30144 fps=354 q=-0.0 size=N/A time=00:20:57.25 bitrate=N/A speed=14.8x    frame=30338 fps=354 q=-0.0 size=N/A time=00:21:05.34 bitrate=N/A speed=14.8x    frame=30524 fps=354 q=-0.0 size=N/A time=00:21:13.10 bitrate=N/A speed=14.8x    frame=30707 fps=354 q=-0.0 size=N/A time=00:21:20.73 bitrate=N/A speed=14.8x    frame=30894 fps=354 q=-0.0 size=N/A time=00:21:28.53 bitrate=N/A speed=14.8x    frame=31081 fps=354 q=-0.0 size=N/A time=00:21:36.33 bitrate=N/A speed=14.8x    frame=31268 fps=354 q=-0.0 size=N/A time=00:21:44.13 bitrate=N/A speed=14.8x    frame=31447 fps=354 q=-0.0 size=N/A time=00:21:51.60 bitrate=N/A speed=14.8x    frame=31633 fps=354 q=-0.0 size=N/A time=00:21:59.35 bitrate=N/A speed=14.8x    frame=31807 fps=354 q=-0.0 size=N/A time=00:22:06.61 bitrate=N/A speed=14.8x    frame=31979 fps=354 q=-0.0 size=N/A time=00:22:13.79 bitrate=N/A speed=14.8x    frame=32157 fps=354 q=-0.0 size=N/A time=00:22:21.21 bitrate=N/A speed=14.8x    frame=32344 fps=354 q=-0.0 size=N/A time=00:22:29.01 bitrate=N/A speed=14.8x    frame=32531 fps=354 q=-0.0 size=N/A time=00:22:36.81 bitrate=N/A speed=14.8x    frame=32692 fps=354 q=-0.0 size=N/A time=00:22:43.52 bitrate=N/A speed=14.8x    frame=32848 fps=354 q=-0.0 size=N/A time=00:22:50.03 bitrate=N/A speed=14.8x    frame=33018 fps=354 q=-0.0 size=N/A time=00:22:57.12 bitrate=N/A speed=14.7x    frame=33198 fps=354 q=-0.0 size=N/A time=00:23:04.63 bitrate=N/A speed=14.7x    frame=33367 fps=353 q=-0.0 size=N/A time=00:23:11.68 bitrate=N/A speed=14.7x    frame=33534 fps=353 q=-0.0 size=N/A time=00:23:18.64 bitrate=N/A speed=14.7x    frame=33686 fps=353 q=-0.0 size=N/A time=00:23:24.98 bitrate=N/A speed=14.7x    frame=33818 fps=352 q=-0.0 size=N/A time=00:23:30.49 bitrate=N/A speed=14.7x    frame=33954 fps=352 q=-0.0 size=N/A time=00:23:36.16 bitrate=N/A speed=14.7x    frame=34130 fps=352 q=-0.0 size=N/A time=00:23:43.50 bitrate=N/A speed=14.7x    frame=34290 fps=352 q=-0.0 size=N/A time=00:23:50.17 bitrate=N/A speed=14.7x    frame=34424 fps=351 q=-0.0 size=N/A time=00:23:55.76 bitrate=N/A speed=14.6x    frame=34600 fps=351 q=-0.0 size=N/A time=00:24:03.10 bitrate=N/A speed=14.6x    [Parsed_ssim_16 @ 0000023753330180] SSIM Y:0.994163 (22.338462) U:0.993990 (22.210958) V:0.993595 (21.934664) All:0.994040 (22.247331)
[out#0/null @ 0000023745e13a00] video:14903KiB audio:271276KiB subtitle:0KiB other streams:0KiB global headers:0KiB muxing overhead: unknown
frame=34683 fps=351 q=-0.0 Lsize=N/A time=00:24:06.57 bitrate=N/A speed=14.6x    
